<svg width="412" height="87" viewBox="0 0 412 87" fill="none" xmlns="http://www.w3.org/2000/svg">
<path d="M286.372 87C296.882 86.3447 301.442 81.2861 304.863 77.6931C308.531 73.8581 310.57 65.781 310.57 65.781V86.8354H351.546C354.642 86.8354 357.578 85.5312 359.776 82.4288C362.056 79.4073 371.426 63.9023 371.426 63.9023H209.379V87H286.372ZM82.3677 87C92.7943 86.3447 97.4384 81.2861 100.86 77.6931C104.527 73.8581 106.565 65.781 106.565 65.781V63.9023H0V87H82.3677ZM205.391 86.916V63.9023H182.331V86.916H205.391ZM129.782 86.916V63.9023H106.81V86.916H129.782ZM372.406 62.5141L412 0.161411H384.951L346.822 59.741L372.406 62.5141ZM205.146 62.1881V28.6148C205.181 29.3024 205.226 30.2773 205.226 30.2773C205.797 33.7056 212.315 48.8847 226.328 50.192C234.718 51.0088 309.427 56.9647 309.427 56.9647C307.959 49.456 304.618 45.621 302.338 43.5001C297.124 38.5222 288.897 37.05 288.897 37.05C286.942 36.8886 231.297 32.2368 231.297 32.2368C229.504 32.1561 226.163 31.6654 226.243 27.2589C226.243 26.6876 226.733 22.8492 230.972 22.8492H311.545V57.1295L333.95 58.7596C334.032 58.7596 334.032 0.161411 334.032 0.161411H226.328C207.59 3.91581 205.633 21.0543 205.633 21.0543C205.303 22.9267 205.191 24.5763 205.146 26.0387V21.2996C201.478 1.71418 183.799 0.161411 183.799 0.161411C183.799 0.161411 182.006 0.0807007 181.68 0H129.131C129.131 0 106.646 1.79488 106.646 23.5045L106.81 55.5768L129.457 56.9647V30.2773C129.457 30.2773 129.541 22.6071 136.952 22.6071H175.732C175.732 22.6071 182.331 23.1785 182.331 30.1967V60.5546L205.146 62.1881ZM105.178 55.5768C102.979 47.8258 99.9636 45.4562 97.6836 43.3354C92.4685 38.2767 84.7318 37.134 84.7318 37.134C82.7742 36.9694 26.5582 32.2368 26.5582 32.2368C24.7684 32.1561 21.1015 31.9915 21.1015 27.585C21.1015 26.2775 21.753 24.8893 22.5688 24.1565C22.5688 24.1565 24.5232 23.0945 26.3971 23.0945H106.401L106.646 0H24.1975C3.50241 1.22349 0.570834 20.8929 0.570834 20.8929C-0.161252 26.0322 0.406356 30.2773 0.406356 30.2773C0.97719 34.9291 7.57564 48.9686 21.6723 50.3534C29.98 51.1702 105.178 55.5768 105.178 55.5768Z" fill="white"/>
</svg>
