<svg width="522" height="111" viewBox="0 0 522 111" fill="none" xmlns="http://www.w3.org/2000/svg">
<path d="M362.785 110.107C376.1 109.277 381.877 102.875 386.212 98.3281C390.857 93.4744 393.439 83.2522 393.439 83.2522V109.899L445.351 109.899C449.273 109.899 452.991 108.248 455.777 104.322C458.666 100.498 470.534 80.8744 470.534 80.8744L265.249 80.8744V110.107L362.785 110.107ZM104.346 110.107C117.555 109.277 123.438 102.875 127.773 98.3281C132.418 93.4744 135 83.2522 135 83.2522V80.8744L-9.04687e-05 80.8744V110.107L104.346 110.107ZM260.195 110.001V80.8744L230.983 80.8744V110.001L260.195 110.001ZM164.413 110.001V80.8744L135.311 80.8744V110.001L164.413 110.001ZM471.776 79.1176L521.935 0.204285L487.669 0.204285L439.365 75.6081L471.776 79.1176ZM259.885 78.705L259.885 36.2147C259.93 37.085 259.987 38.3188 259.987 38.3188C260.71 42.6577 268.967 61.8682 286.719 63.5229C297.35 64.5565 391.993 72.0945 391.993 72.0945C390.134 62.5914 385.901 57.7377 383.013 55.0534C376.406 48.7534 365.984 46.8904 365.984 46.8904C363.508 46.6861 293.015 40.7988 293.015 40.7988C290.743 40.6966 286.511 40.0756 286.613 34.4988C286.613 33.7756 287.234 28.9179 292.602 28.9179L394.677 28.9179L394.677 72.3028L423.06 74.3661C423.162 74.3661 423.162 0.204285 423.162 0.204285L286.719 0.204285C262.982 4.95584 260.502 26.6463 260.502 26.6463C260.085 29.0159 259.942 31.1037 259.885 32.9544V26.9568C255.24 2.16946 232.842 0.204285 232.842 0.204285C232.842 0.204285 230.571 0.102145 230.158 5.16977e-06L163.587 5.16977e-06C163.587 5.16977e-06 135.102 2.2716 135.102 29.7472L135.311 70.3377L164 72.0945V38.3188C164 38.3188 164.106 28.6114 173.495 28.6114L222.624 28.6114C222.624 28.6114 230.983 29.3346 230.983 38.2167L230.983 76.6377L259.885 78.705ZM133.244 70.3377C130.457 60.5281 126.637 57.5293 123.749 54.8451C117.142 48.4429 107.341 46.9966 107.341 46.9966C104.861 46.7883 33.6448 40.7988 33.6448 40.7988C31.3773 40.6966 26.732 40.4883 26.732 34.9114C26.732 33.2568 27.5573 31.5 28.5909 30.5725C28.5909 30.5725 31.0668 29.2284 33.4405 29.2284L134.792 29.2284L135.102 5.16977e-06L30.6542 5.16977e-06C4.43687 1.54845 0.72306 26.442 0.72306 26.442C-0.20437 32.9463 0.514695 38.3188 0.514695 38.3188C1.23785 44.2062 9.59698 61.9744 27.4551 63.7272C37.9796 64.7608 133.244 70.3377 133.244 70.3377Z" fill="white"/>
</svg>
