<svg width="247" height="54" viewBox="0 0 247 54" fill="none" xmlns="http://www.w3.org/2000/svg">
<path d="M171.684 53.0633C177.985 52.6708 180.719 49.6411 182.77 47.4891C184.969 45.1922 186.191 40.3546 186.191 40.3546V52.9647L210.757 52.9647C212.613 52.9647 214.373 52.1836 215.691 50.3255C217.058 48.5158 222.675 39.2294 222.675 39.2294L125.526 39.2294L125.526 53.0633L171.684 53.0633ZM49.3806 53.0633C55.6315 52.6708 58.4157 49.6411 60.4671 47.4891C62.6655 45.1922 63.8874 40.3546 63.8874 40.3546V39.2294L-3.64701e-05 39.2294V53.0633L49.3806 53.0633ZM123.135 53.013L123.135 39.2294L109.31 39.2294V53.013L123.135 53.013ZM77.8064 53.013V39.2294L64.0344 39.2294V53.013L77.8064 53.013ZM223.263 38.398L247 1.05311L230.784 1.05311L207.925 36.7371L223.263 38.398ZM122.988 38.2027L122.988 18.0947C123.009 18.5065 123.036 19.0904 123.036 19.0904C123.378 21.1437 127.286 30.2349 135.687 31.0179C140.717 31.5071 185.506 35.0743 185.506 35.0743C184.626 30.5771 182.623 28.2802 181.256 27.0099C178.13 24.0285 173.198 23.1468 173.198 23.1468C172.026 23.0501 138.666 20.264 138.666 20.264C137.591 20.2157 135.588 19.9218 135.636 17.2826C135.636 16.9404 135.93 14.6415 138.471 14.6415L186.776 14.6415L186.776 35.173L200.208 36.1493C200.257 36.1493 200.257 1.05311 200.257 1.05311L135.687 1.05311C124.453 3.30173 123.28 13.5665 123.28 13.5665C123.082 14.6879 123.015 15.6759 122.988 16.5518V13.7134C120.789 1.98311 110.19 1.05311 110.19 1.05311C110.19 1.05311 109.115 1.00477 108.92 0.956436L77.4159 0.956436C77.4159 0.956436 63.9358 2.03144 63.9358 15.034L64.0344 34.243L77.6111 35.0743L77.6111 19.0904C77.6111 19.0904 77.6614 14.4965 82.1045 14.4965L105.354 14.4965C105.354 14.4965 109.31 14.8387 109.31 19.0421L109.31 37.2244L122.988 38.2027ZM63.056 34.243C61.7374 29.6007 59.9296 28.1815 58.5627 26.9113C55.4362 23.8815 50.7979 23.1971 50.7979 23.1971C49.6243 23.0985 15.922 20.264 15.922 20.264C14.849 20.2157 12.6506 20.1171 12.6506 17.4779C12.6506 16.6948 13.0412 15.8634 13.5303 15.4245C13.5303 15.4245 14.702 14.7884 15.8254 14.7884L63.7888 14.7884L63.9358 0.956436L14.5067 0.956436C2.09971 1.68922 0.342187 13.4698 0.342187 13.4698C-0.0967093 16.5479 0.24358 19.0904 0.24358 19.0904C0.585803 21.8765 4.54167 30.2852 12.9928 31.1146C17.9734 31.6038 63.056 34.243 63.056 34.243Z" fill="black"/>
</svg>
